<?xml version="1.0" encoding="UTF-8"?>
<svg id="Layer_1" data-name="Layer 1" xmlns="http://www.w3.org/2000/svg" viewBox="0 0 500 500">
  <defs>
    <style>
      .cls-1 {
        fill: #f2e04a;
      }

      .cls-2 {
        fill: #09af10;
      }
    </style>
  </defs>
  <path class="cls-2" d="m363.35,256.3c0,51.84-32.54,96.09-78.32,113.42-12.48,4.73-25.96,7.45-40.02,7.78-.96.02-1.92.03-2.89.03-66.95,0-121.23-54.28-121.23-121.23s54.28-121.23,121.23-121.23,121.23,54.28,121.23,121.23Z"/>
  <g>
    <path class="cls-1" d="m285.28,364.27c0,1.81-.09,3.64-.25,5.45-12.48,4.73-25.96,7.45-40.02,7.78.19-1.88.6-3.95,1.29-6.1.05-.23.12-.46.18-.69.33-1.42.38-2.94.75-4.38.88-3.46,1.94-7.28,2.46-10.78,1.43-10.08,3.18-20.46,3.18-30.8v-14.51c0-4.65-.7-8.9-1.15-13.5-.47-4.63-1.34-9.58-2.47-14.15h0c-.04-.18-.09-.34-.12-.5-.82-3.21-1.43-7.19-3.49-9.86-.81-1.05-1.21-1.61-1.14-2.03.07-.5.82-.77,2.36-1.39,3.84-1.53,7.68-3.03,11.52-4.56.77-.3,4.92,3.35,5.61,3.79,1.17.76,2.01,1.65,2.71,2.66,1.01,1.42,1.74,3.04,2.75,4.7,1.83,3,3.26,5.85,4.63,9.11,2.78,6.59,4.01,13.04,5.54,19.95,2.45,11.14,4.11,22.36,5.15,33.58.81,8.64.5,17.46.5,26.2Z"/>
    <path class="cls-1" d="m346.95,282.32c-.84-11.66-4.92-24.29-14.51-31.64-4.52-3.45-11.08-6.03-16.49-7.61-14.46-4.19-31.45-1.51-46.22,4.26,3.47-3.05,7.03-6.05,10.8-8.64,3.89-2.68,7.87-5.14,12.09-7.29,1.1-.56,1.91-.74,1.77-2.1-.07-.72-.44-1.38-.72-2.1-.91-2.23-2.45-3.84-3.75-5.85-1.4-2.14-3.68-4.56-3.38-7.26,1.12-.39,3.61,1.3,4.7,1.74,2,.82,3.86,1.74,5.78,2.7,1.61.81,3.24,1.6,4.82,2.47.89.51,2.12,1.7,3.14,1.88,1.7.32,3.51-1.49,4.93-2.19,1.03-.51,1.42-.42.98-1.63-.74-2.05-1.7-3.77-2.51-5.73-.84-2.07-1.61-4.31-1.33-6.59,1.56-.54,5.05,2.33,6.26,3.1,1.23.77,2.58,1.63,3.7,2.59.95.81,1.51,2.3,2.89,2.17.75-.05,1.42-.74,2.09-1,1.17-.46,1.82-1.07,2.91-1.67,2.12-1.17,4.38-2.35,6.57-3.4,2.61-1.24,2.47-1.79.72-4.07-.98-1.28-2.3-2.33-3.49-3.4-3.23-2.86-6.24-4.7-10.11-6.47-1.42-.65-3.01-.74-4.4-1.45-1.3-.65-2.49-.91-3.96-1.14-3.14-.53-6.33-.81-9.52-.91-20.35-.67-38.98,13.83-46.71,32.41-.26-4.96-.07-9.99-.07-14.95,0-1.68-.12-3.21.18-4.86.21-1.17.79-5.35-.26-5.94-1.47-.82-14.08-.65-13.27-2.31.77-1.6,3.8-2.1,5.29-2.59,1.86-.61,3.75-1.03,5.56-1.79,1.33-.54,3.24-.44,4.35-1.4.86-.75.77-2.19,1-3.19.32-1.44,4.28-17.76,2.89-18.12-.79-.21-2.28.37-3.1.47-1.23.18-2.49.61-3.68.96-1.68.49-3.47.96-5.08,1.68-3.59,1.6-7.12,3.45-10.41,5.63-1.63,1.07-3.21,2.21-4.7,3.44-7.03,5.78-12.23,13.25-13.99,22.45-1.6,8.33,1.33,16.58,5.45,23.8-3.84-2.52-7.84-4.82-11.97-6.77-13.93-6.54-31.5-4.66-44.68,2.86-4.56,2.59-9.17,6.06-12.87,9.8-3.51,3.54-8.5,11.06-9.48,16.06-.19,1.02-.35,2.07-.51,3.1.07,0,.16.02.23.02,1.77.14,20.39,2.52,20.68.53.23-1.54,1.56-3.03,2.21-4.42,1.91-4.07,7.78-11.97,13.32-10.76.23,1.19-.51,2.03-.96,3.12-.72,1.74-1.4,3.47-2.12,5.21-.91,2.23-1.89,4.15-1.58,6.59,2.28.28,4.77.04,7.06.04,2,0,4,.21,5.99-.04.05,0,1.56-4.72,1.81-5.36.81-1.96,2.09-3.56,3.49-5.14.75-.84,2.63-3.01,3.91-2.58.26.09-.74,9.25-.81,9.94-.18,1.4-.61,2.75-.44,4.17,4.47,1.19,9.15,1,13.71,1.45,2,.21,4.01.56,6.01.95-.12,0-.25.02-.37.02-6.12.49-12.22,1.53-18.09,3.31-11.67,3.54-23.08,9.43-31.17,18.61-7.8,8.87-12.36,25.45-11.32,37.07.4,4.38.39,5.52,1.21,9.85.53,2.77,1.03,6.08,2.59,8.5.6.95,2.77,4.96,4.26,3.8,1.07-.82,1.65-2.49,2.44-3.59,2.12-2.94,4.35-5.8,6.45-8.76.95-1.33,4.31-4.54,3.66-6.26-.75-1.96-.96-4.22-1.21-6.29-.35-2.98-.53-6.03-.28-9.03.11-1.3.28-2.61.72-3.84.19-.54,1.19-2.66,1.95-2.42.35.11.39,1.68.42,1.96.14,1.19.25,2.38.35,3.58.12,1.42.11,2.8.4,4.21.35,1.68.93,3.3,1.44,4.94.28.91.65,2.19,1.44,2.8.91.7,1.86-.47,2.47-1.09,1.61-1.6,3.21-3.3,4.7-4.94.65-.72,1.12-1.6,1.75-2.37.19-.23.61-.44.74-.7.23-.49-.18-1.6-.28-2.12-.21-.95-.58-1.88-.74-2.84-.35-2.05-.21-4.1,0-6.15.12-1.24-.14-4.52,1.02-5.35.88-.63.68.82.68,1.33,0,2.59.58,5.1,1.4,7.55.35,1.03.67,2.3,1.4,3.14,1.02,1.14,2.02-.26,2.82-1,2.54-2.35,5.08-4.7,7.66-7.01.54-.49,1.1-.98,1.67-1.47,1.17-.98,2.38-1.93,3.58-2.89-2.63,3.96-4.7,8.27-5.91,12.85-1.47,5.49-2.31,12.64-1.44,18.26.79,5.12,2.66,10.92,5.54,15.28,2.26,3.42,6.06,7.15,9.78,8.97,2.47,1.21,4.84-6.13,5.36-7.48.79-2.1,1.37-4.33,2.26-6.4.7-1.65,2.66-4.63,1.6-6.4-.46-.79-1.07-1.47-1.53-2.33-2.56-4.75-6.05-8.97-5.38-14.79.67.14,1.33,1.26,1.7,1.86.86,1.44,1.6,2.98,2.58,4.33.96,1.33,1.63,2.89,2.82,4.12.79.81,1.44,1.88,2.51,2.38,1.4.67,1.68-1.03,1.96-2.02.47-1.72,1.47-3.17,2.14-4.8.63-1.52,1.51-2.94,2.17-4.47.61-1.4,1.89-3.14,1.61-4.75-.16-.89-1-1.63-1.42-2.45-.56-1.19-1.12-2.38-1.61-3.61-.37-.96-.7-1.96-.96-2.94-.14-.51-.14-1.56-.42-1.89.58.91,2.07,1.68,2.87,2.45.74.68,3.3,3.75,4.5,3.01,1.67-1.02,2.14-3.33,2.89-4.98,1-2.28,2.28-4.36,3.19-6.64,1.14-2.91,2.94-5.22,4.64-7.78,1.17-1.79,2.63-3.3,3.77-5.08.65-1.02,2.23-2.68,2.61-3.91,7.77,1.88,15.78,3.35,23.38,5.84,3.05.98,6.03,2.23,9.04,3.33,2.19.81,4.52,1.02,6.75,1.72,1.26.4,2.7,1.45,3.56-.05.61-1.1.77-2.49,1.37-3.68.77-1.54,1.17-3.08,1.56-4.75.32-1.24.37-2.72.86-3.87.33-.75.81-2.52,1.44-3.03,1.35-1.07,1.65,1.28,1.98,2.38,1.09,3.72.82,7.99.74,11.83-.05,1.77-.7,3.52-.49,5.28.81-.02,1.63.58,2.38.82,1.23.42,2.56.68,3.82,1,.75.18,2.24.88,2.96.79.96-.12.88-.96,1.37-1.74,1.3-1.98,2.21-4.29,3.03-6.56,1.05-2.86,1.24-6.03,2.75-8.71.05-.11,1.1,2.37,1.17,2.59.56,1.72.95,3.05,1.17,4.8.12.88.39,1.75.53,2.63.23,1.45.21,2.89.21,4.4,0,2.47-.26,5.14.04,7.57,1.82.26,3.51,1.67,5.22,2.24,1.32.44,12.32,4.54,12.32,4.87-.03-1.02.46-2.09.56-3.1.12-1.33.26-2.61.54-3.94.54-2.96.16-6.22-.07-9.24Z"/>
    <path class="cls-1" d="m235.23,185.52c-.21-.11-.49-.12-.82,0-.75.24-2.04,1.82-2.58,2.4-3.82,4.11-5.99,9.97-6.75,15.47-.45,3.21-.26,6.49.44,9.66.35,1.6.84,3.17,1.43,4.7.32.81.51,1.53,1.18,2.08.61.54,1.26.51,1.94.12.46-.26,1.18-.7,1.53-1.1.77-.9-.23-2.26-.53-3.16-.89-2.63-2.01-5.22-2.33-7.99-.32-2.79.07-5.72.71-8.45.7-3.07,1.84-6.03,3.4-8.75.75-1.31,1.66-2.49,2.5-3.73.37-.6.25-1.07-.12-1.26Zm-42.16,34.81c-1.96.12-3.92.28-5.89.61-6.04,1.02-11.92,3.08-17.15,6.31-5.8,3.56-10.8,8.45-14.51,14.15-.86,1.29-1.97,2.56-1.36,3.8.12.26.33.53.61.78.95.83,3.12.83,4.25.39,2-.77,2.98-3.45,4.17-5.03,2.04-2.68,4.26-5.22,6.82-7.42,3.53-3.03,7.52-5.52,11.76-7.4,3.16-1.4,6.45-2.47,9.83-3.18,1.72-.37,3.47-.64,5.23-.79.64-.05,1.78-.07,2.22-.65,1.65-2.22-5.33-1.61-5.98-1.57Zm10.59,41.27c-.15-.1-.32-.16-.49-.19-.18-.02-.36-.02-.53.04-3.16.86-6.26,2.03-9.27,3.35-4.54,1.98-8.9,4.38-12.9,7.32-4.58,3.35-8.68,7.42-11.76,12.2-3.63,5.66-5.9,12.09-6.82,18.76-.71,5.25-.58,10.64.22,15.88.25,1.57.57,3.12.93,4.66.26,1.12.46,2.84,1.32,3.63.77.68,1.12.04,1.67-.57.93-1.04,1.93-2.04,2.79-3.12.64-.81.63-1.89.38-2.87-.43-1.65-.77-3.33-1.02-5.03-.35-2.46-.54-4.94-.54-7.44,0-3.03.29-6.06.89-9.04.69-3.41,1.79-6.73,3.28-9.87,1.72-3.61,3.97-6.93,6.61-9.92,3.18-3.56,6.89-6.62,10.9-9.18,2.37-1.51,4.83-2.87,7.37-4.07,1.38-.67,2.78-1.28,4.2-1.86.77-.32,2.8-.63,3.11-1.58.12-.49-.04-.88-.33-1.08Zm16.65,67.68c-1.02-3-2.98-5.68-4.14-8.68-1.24-3.21-1.75-6.69-1.91-10.13-.12-2.89.02-5.8.36-8.68.21-1.68.47-3.32.81-4.99.18-.9.37-1.79.58-2.67.14-.64,1.07-4.43-.74-3.32-.51.32-.83,1.02-1.11,1.57-1.61,3.05-2.86,6.32-3.73,9.67-1.29,4.98-1.74,10.22-1.02,15.33.46,3.35,1.46,6.62,2.86,9.71.72,1.56,1.53,3.05,2.43,4.5.79,1.25,1.58,3.66,3.42,2.35.99-.7,2.61-3.35,2.17-4.66Z"/>
  </g>
</svg>